<svg id="Capa_1" enable-background="new 0 0 512 512" height="512" viewBox="0 0 512 512" width="512" xmlns="http://www.w3.org/2000/svg"><g><g><path d="m456.969 407.139c27.744-39.712 44.031-88.02 44.031-140.139 0-135.31-109.69-245-245-245s-245 109.69-245 245c0 52.119 16.287 100.427 44.031 140.139z" fill="#73c3f9"/></g><g><circle cx="256" cy="222" fill="#4fabf7" r="180"/></g><g><path d="m151.991 117.143h210.286v30.076h-210.286z" fill="#a05838"/></g><g><path d="m429.558 352.438c-23.413-20.673-123.588-37.434-126.172-37.863h-94.772c-2.584.428-102.759 17.19-126.172 37.863-8.351 7.373-18.17 29.339-27.391 54.702 44.284 63.387 117.758 104.86 200.949 104.86s156.665-41.473 200.949-104.861c-9.221-25.363-19.04-47.328-27.391-54.701z" fill="#2a428c"/></g><g><path d="m268.917 488.5v-173.925h-60.302c-2.584.428-102.759 17.19-126.172 37.863-8.351 7.373-18.17 29.339-27.391 54.702 41.716 59.712 109.337 99.971 186.581 104.44z" fill="#1c2e7a"/></g><g><path d="m211.915 347.831h88.17v75.509h-88.17z" fill="#bec8f7"/></g><g><path d="m91.07 426.843v21.327c7.157 6.519 14.704 12.617 22.599 18.262l-12.035-41.103c-1.75-5.98-10.564-4.716-10.564 1.514z" fill="#142766"/></g><g><path d="m420.93 426.843v21.327c-7.157 6.519-14.704 12.617-22.599 18.262l12.035-41.103c1.75-5.98 10.564-4.716 10.564 1.514z" fill="#1c2e7a"/></g><g><path d="m208.891 193.75v120.825c0 18.367 21.091 33.256 47.109 33.256s47.109-14.889 47.109-33.256v-120.825z" fill="#fcad6d"/></g><g><path d="m303.109 265.722v-71.972h-94.217v120.825c77.726 0 91.702-35.949 94.217-48.853z" fill="#fd995b"/></g><g><path d="m331.058 159.567s10.385-25.285 28.897-19.415-.448 60.664-36.573 64.116z" fill="#fcad6d"/></g><g><path d="m180.942 159.567s-10.385-25.285-28.897-19.415.448 60.664 36.573 64.116z" fill="#fd995b"/></g><g><path d="m343.597 146.754c0 64.505-39.219 140.155-87.597 140.155s-87.597-75.651-87.597-140.155 39.218-110.884 87.597-110.884 87.597 46.38 87.597 110.884z" fill="#f9ba8f"/></g><g><path d="m208.403 146.754c0-55.33 28.856-97.321 67.597-108.148-6.424-1.795-13.119-2.737-20-2.737-48.379 0-87.597 46.38-87.597 110.885s39.219 140.155 87.597 140.155c6.881 0 13.576-1.535 20-4.346-38.741-16.952-67.597-80.479-67.597-135.809z" fill="#fcad6d"/></g><g><g><path d="m242.013 192.447 8.436-13.441c2.569-4.093 8.533-4.093 11.102 0l8.436 13.441c2.739 4.365-.398 10.038-5.551 10.038h-16.871c-5.154-.001-8.291-5.674-5.552-10.038z" fill="#fd995b"/></g></g><g><g><path d="m235.384 240.87h41.233c4.111-3.622 7.258-8.309 9.01-13.631 1.584-4.811-2.069-9.754-7.134-9.754h-44.985c-5.065 0-8.718 4.943-7.134 9.754 1.752 5.322 4.899 10.009 9.01 13.631z" fill="#142766"/></g><g><path d="m276.616 240.87c-5.493 4.849-12.714 7.798-20.616 7.798s-15.124-2.948-20.616-7.798c5.5-4.849 12.714-7.798 20.616-7.798s15.116 2.949 20.616 7.798z" fill="#ff4155"/></g></g><g><path d="m310.999 162.085c.043-3.495-1.371-7.004-4.242-9.539-4.675-4.128-11.84-4.128-16.515 0-2.871 2.535-4.284 6.044-4.242 9.539.055 4.538 5.629 6.716 8.838 3.507 2.022-2.022 5.3-2.022 7.322 0 3.21 3.21 8.784 1.032 8.839-3.507z" fill="#142766"/></g><g><path d="m201.001 162.085c-.043-3.495 1.371-7.004 4.242-9.539 4.675-4.128 11.84-4.128 16.515 0 2.871 2.535 4.284 6.044 4.242 9.539-.055 4.538-5.629 6.716-8.838 3.507-2.022-2.022-5.3-2.022-7.322 0-3.21 3.21-8.784 1.032-8.839-3.507z" fill="#142766"/></g><g><path d="m208.891 299.609 47.109 48.222s-18.328 33.146-30.188 33.146c-11.859 0-32.352-63.621-32.352-63.621z" fill="#e9efff"/></g><g><path d="m303.109 299.609-47.109 48.222s18.328 33.146 30.188 33.146c11.859 0 32.352-63.621 32.352-63.621z" fill="#e9efff"/></g><g><path d="m303.109 299.609-47.109 117.093-47.109-117.093-124.014 45.269c-3.605 1.316-4.445 6.036-1.515 8.514l159.722 135.108c7.456 6.307 18.377 6.307 25.833 0l159.722-135.107c2.93-2.479 2.091-7.198-1.515-8.514z" fill="#ff4155"/></g><g><path d="m83.362 353.393 106.144 89.786c-30.638-60.782-21.104-128.789-21.103-128.79l-83.526 30.49c-3.606 1.316-4.445 6.035-1.515 8.514z" fill="#e80054"/></g><g><path d="m394.068 332.812-138.068 116.791-138.068-116.79-16.225 5.922 149.449 126.417c1.398 1.183 3.121 1.774 4.844 1.774s3.446-.591 4.844-1.774l149.449-126.417z" fill="#e80054"/></g><g><path d="m101.708 338.735 72.109 60.996c-1.925-8.031-3.341-15.871-4.367-23.341l-51.517-43.578z" fill="#cc0053"/></g><g><path d="m367.156 15h-222.312v100.255c0 4.418 3.582 8 8 8h206.312c4.418 0 8-3.582 8-8z" fill="#1c2e7a"/></g><g><path d="m204.844 115.255v-100.255h-60v100.255c0 4.418 3.582 8 8 8h60c-4.418 0-8-3.581-8-8z" fill="#142766"/></g><g><path d="m223.5 130.755h-20c-4.142 0-7.5-3.358-7.5-7.5 0-4.142 3.358-7.5 7.5-7.5h20c4.142 0 7.5 3.358 7.5 7.5 0 4.143-3.358 7.5-7.5 7.5z" fill="#823c26"/></g><g><path d="m308.5 130.755h-20c-4.142 0-7.5-3.358-7.5-7.5 0-4.142 3.358-7.5 7.5-7.5h20c4.142 0 7.5 3.358 7.5 7.5 0 4.143-3.358 7.5-7.5 7.5z" fill="#823c26"/></g><g><path d="m391 0h-39.903l-7.5 7-7.5-7h-215.097c-8.284 0-15 6.716-15 15s6.716 15 15 15h270c8.284 0 15-6.716 15-15s-6.716-15-15-15z" fill="#2a428c"/></g><g><path d="m166 15c0-8.284 6.716-15 15-15h-60c-8.284 0-15 6.716-15 15s6.716 15 15 15h60c-8.284 0-15-6.716-15-15z" fill="#1c2e7a"/></g><g><path d="m336.097 0h15v188.255h-15z" fill="#ffb332"/></g><g><path d="m343.597 147.218c-4.142 0-7.5-3.358-7.5-7.5v48.537h15v-48.537c0 4.142-3.358 7.5-7.5 7.5z" fill="#ff9100"/></g><g><path d="m351.097 188.255h-15v37.5c0 4.142 3.358 7.5 7.5 7.5s7.5-3.358 7.5-7.5z" fill="#ff4155"/></g><g><path d="m358.235 188.255c-.086 19.144-29.193 19.142-29.277-.001.087-19.142 29.194-19.141 29.277.001z" fill="#ffdd40"/></g><g><path d="m343.597 188.255c0-5.415 2.948-10.132 7.319-12.664-9.295-5.722-22.267 1.642-21.957 12.664-.31 11.019 12.663 18.389 21.957 12.664-4.371-2.532-7.319-7.249-7.319-12.664z" fill="#ffb332"/></g></g></svg>